<svg id="Capa_1" enable-background="new 0 0 511.997 511.997" height="50" viewBox="0 0 511.997 511.997" width="50" xmlns="http://www.w3.org/2000/svg"><g><g><g><path d="m385.726 376.566v127.934h-259.455v-127.934c0-33.517 27.168-60.686 60.685-60.686h138.084c33.518.001 60.686 27.169 60.686 60.686z" fill="#eff5f6"/><path d="m385.729 376.57v127.93h-164.14c100.34-43.22 125.25-135.99 131.4-181.81 19.45 10.11 32.74 30.44 32.74 53.88z" fill="#cbe5e7"/><path d="m306.167 315.881v5.635c0 27.658-22.511 50.158-50.169 50.158s-50.169-22.501-50.169-50.158v-5.635z" fill="#fb6672"/><path d="m280.689 266.67v54.84c0 13.64-11.06 24.69-24.69 24.69s-24.69-11.05-24.69-24.69v-54.84z" fill="#fcd79f"/><path d="m280.689 266.67v43.22c-7.76 2.57-16.07 3.96-24.69 3.96s-16.93-1.39-24.69-3.96v-43.22z" fill="#fac574"/><g><g><g><path d="m200.161 175.422c-7.588 19.472-24.092 61.741-59.279 71.895 0 0-3.696 36.473 59.279 38.522l57.577.094z" fill="#d7a964"/></g><g><path d="m311.836 175.422c7.588 19.472 24.092 61.741 59.279 71.895 0 0 3.696 36.473-59.279 38.522l-57.577.094z" fill="#d7a964"/><g><g><circle cx="171.978" cy="219.004" fill="#fcd79f" r="22.782"/></g><g><circle cx="340.022" cy="219.004" fill="#fcd79f" r="22.782"/></g></g></g></g><path d="m381.29 80.164c-1.177 25.483-22.019 46.113-47.513 47.048-16.856.618-31.911-7.213-41.276-19.593-.026-.035-.053-.07-.079-.105-4.066-5.398-11.185-7.555-17.421-4.951-5.849 2.442-12.266 3.792-19.003 3.792-6.735 0-13.152-1.35-19-3.791-6.235-2.603-13.357-.45-17.419 4.95-9.34 12.416-24.39 20.285-41.255 19.702-25.679-.888-46.641-21.758-47.634-47.433-1.09-28.195 21.435-51.386 49.387-51.386 11.301 0 21.706 3.791 30.032 10.17 7.286-18.2 25.079-31.061 45.889-31.061s38.602 12.861 45.889 31.061c8.326-6.379 18.73-10.17 30.032-10.17 5.279 0 10.354.826 15.123 2.354 20.605 6.614 35.311 26.38 34.248 49.413z" fill="#eff5f6"/><path d="m381.344 77.821c0 27.301-22.124 49.425-49.425 49.425-16.101 0-30.399-7.704-39.418-19.627 47.631-18.914 55.356-53.695 54.541-76.868 19.902 6.388 34.302 25.048 34.302 47.07z" fill="#cbe5e7"/><path d="m334.69 134.49v82.78c0 43.46-35.23 78.69-78.69 78.69s-78.69-35.23-78.69-78.69v-82.78z" fill="#f9e1c2"/><path d="m334.69 134.49v42.79l-4.06-1.23c-9.49-2.87-25.62-5.19-44.25-6.36-9.63-.62-19.84-.94-30.38-.94-31.13 0-59.73 2.8-74.64 7.3l-4.05 1.22v-42.78z" fill="#fcd79f"/><path d="m334.69 148.58v61.64c-25.88-8.85-35.59-25.9-39.03-39.83-2.98-12.08-1.25-21.81-1.25-21.81z" fill="#fac574"/><path d="m334.69 148.58v28.7l-4.06-1.23c-7.87-2.38-20.32-4.38-34.97-5.66-2.98-12.08-1.25-21.81-1.25-21.81z" fill="#d7a964"/><path d="m271.61 168.99c-8.21 15.66-31.19 34.62-94.3 34.62v-55.03h98.57s1.52 9.39-4.27 20.41z" fill="#fac574"/><path d="m275.88 148.58s1.52 9.39-4.27 20.41c-5.1-.16-10.31-.24-15.61-.24-31.13 0-59.73 2.8-74.64 7.3l-4.05 1.22v-28.69z" fill="#d7a964"/><path d="m334.681 116.048v46.602c-10.547-3.19-27.311-5.666-47.427-6.93-9.742-.632-20.269-.968-31.255-.968-33.66 0-63.029 3.169-78.682 7.898v-46.602c0-4.779 3.312-8.937 7.99-9.946 16.631-3.587 42.118-5.87 70.693-5.87 21.777 0 41.761 1.325 57.404 3.546 4.881.693 9.335 1.467 13.289 2.324 4.676 1.009 7.988 5.166 7.988 9.946z" fill="#fb6672"/><path d="m334.681 116.048v46.602c-10.547-3.19-27.311-5.666-47.427-6.93 21.502-20.351 25.813-32.671 26.149-51.942 4.881.693 9.335 1.467 13.289 2.324 4.677 1.009 7.989 5.166 7.989 9.946z" fill="#fb4a59"/></g></g></g><g><path d="m385.724 421.197c-4.142 0-7.5 3.357-7.5 7.5v75.799c0 4.143 3.358 7.5 7.5 7.5s7.5-3.357 7.5-7.5v-75.799c0-4.142-3.358-7.5-7.5-7.5z"/><path d="m126.273 449.864c-4.142 0-7.5 3.357-7.5 7.5v47.132c0 4.143 3.358 7.5 7.5 7.5s7.5-3.357 7.5-7.5v-47.132c0-4.142-3.357-7.5-7.5-7.5z"/><path d="m325.038 308.376h-36.853v-11.176c2.82-1.14 5.569-2.416 8.232-3.836l15.43-.025c.077 0 .154-.001.231-.004 26.667-.867 45.825-7.751 56.941-20.46 10.646-12.172 9.7-24.903 9.557-26.314-.309-3.048-2.44-5.602-5.383-6.45-2.933-.846-5.811-1.995-8.618-3.415 3.599-4.981 5.728-11.09 5.728-17.691 0-15.969-12.428-29.082-28.118-30.196v-54.313-.678c12.051-2.196 23.086-8.226 31.515-17.329 9.768-10.55 15.146-24.282 15.146-38.668 0-9.599-2.399-19.072-6.938-27.396-1.982-3.636-6.537-4.976-10.175-2.994-3.637 1.983-4.978 6.539-2.995 10.176 3.341 6.127 5.107 13.117 5.107 20.215 0 19.331-13.449 36.015-31.661 40.644v-2.409c0-8.279-5.853-15.549-13.917-17.285-8.736-1.881-19.526-3.366-31.557-4.395l2.435-14.253c.697-4.083-2.047-7.958-6.13-8.655-4.082-.697-7.958 2.046-8.656 6.13l-2.693 15.763c-8.246-.414-16.871-.63-25.67-.63-8.798 0-17.423.216-25.669.63l-2.693-15.763c-.697-4.083-4.573-6.836-8.656-6.13-4.083.697-6.828 4.572-6.13 8.655l2.435 14.253c-12.031 1.028-22.82 2.513-31.556 4.395-8.064 1.736-13.917 9.005-13.917 17.285v2.435c-18.414-4.585-31.661-21.125-31.661-40.67 0-23.377 18.31-41.793 41.684-41.927.083-.001.166-.001.249-.001 9.29 0 18.091 2.982 25.463 8.632 1.862 1.428 4.286 1.901 6.548 1.279 2.263-.622 4.104-2.267 4.976-4.444 6.413-16.015 21.693-26.361 38.93-26.361s32.517 10.346 38.929 26.357c.872 2.179 2.714 3.823 4.977 4.444 2.261.621 4.686.147 6.548-1.279 7.372-5.649 16.173-8.632 25.466-8.632.082 0 .164 0 .246.001 4.704.026 9.326.818 13.738 2.354 3.911 1.362 8.187-.705 9.548-4.618 1.361-3.912-.707-8.187-4.619-9.548-5.973-2.079-12.225-3.151-18.583-3.188-9.733-.031-19.023 2.285-27.377 6.822-10.159-17.08-28.51-27.713-48.873-27.713s-38.715 10.633-48.872 27.714c-8.356-4.539-17.643-6.88-27.378-6.822-15.234.087-29.479 6.024-40.111 16.719-10.631 10.694-16.486 24.974-16.486 40.208 0 27.811 19.767 51.13 46.661 55.993v.683 54.314c-15.689 1.116-28.115 14.228-28.115 30.196 0 6.6 2.129 12.709 5.727 17.69-2.808 1.421-5.687 2.57-8.62 3.416-2.943.849-5.074 3.402-5.383 6.45-.143 1.411-1.09 14.143 9.556 26.314 11.116 12.709 30.274 19.593 56.941 20.46.077.003.154.004.231.004l15.43.025c2.663 1.42 5.412 2.697 8.232 3.836v11.176h-36.853c-37.598 0-68.186 30.588-68.186 68.186v45.407c0 4.143 3.358 7.5 7.5 7.5s7.5-3.357 7.5-7.5v-45.407c0-29.326 23.859-53.186 53.186-53.186h11.418c.987 30.934 26.447 55.799 57.621 55.799h26.382c8.981 0 16.287 7.307 16.287 16.287v109.035c0 4.143 3.358 7.5 7.5 7.5s7.5-3.357 7.5-7.5v-109.035c0-13.628-8.762-25.243-20.946-29.523 12.339-10.215 20.353-25.462 20.899-42.563h11.418c29.327 0 53.186 23.859 53.186 53.186v16.741c0 4.143 3.358 7.5 7.5 7.5s7.5-3.357 7.5-7.5v-16.741c0-37.598-30.588-68.186-68.186-68.186zm-140.226-91.104v-6.26c33.453-.825 58.97-7.252 75.91-19.141 13.217-9.277 18.933-20.135 21.299-28.954 1.617.085 3.216.179 4.797.28 1.593 14.287 9.047 39.28 40.367 52.189v1.886c0 39.252-31.935 71.187-71.187 71.187s-71.186-31.935-71.186-71.187zm0-48.857c16.362-3.839 42.82-6.167 71.187-6.167 3.5 0 6.969.037 10.396.107-5.273 13.14-23.056 32.163-81.583 33.658zm142.374 30.458c-16.92-8.923-23.232-22.414-25.106-34.409 9.728 1.016 18.291 2.352 25.106 3.951zm30.283 64.421c-7.521 8.353-21.445 13.407-40.425 14.756 8.179-8.214 14.696-18.073 19.052-29.019 1.296.168 2.606.255 3.926.255 4.263 0 8.321-.89 12.004-2.487 3.593 2.278 7.319 4.191 11.148 5.716-.659 2.917-2.19 6.875-5.705 10.779zm-2.165-44.29c0 8.267-6.602 15.005-14.808 15.258 1.103-5.495 1.69-11.175 1.69-16.99v-6.819c.001-.04-.001-.08 0-.121v-6.44c7.402 1.058 13.118 7.422 13.118 15.112zm-170.492-102.951c0-1.26.872-2.362 2.074-2.621 16.835-3.625 42.026-5.704 69.113-5.704s52.278 2.079 69.113 5.704c1.202.259 2.074 1.361 2.074 2.621v37c-17.648-3.678-43.263-5.805-71.187-5.805s-53.539 2.127-71.187 5.805zm-15 87.841v13.379c0 5.815.587 11.495 1.69 16.99-8.205-.255-14.805-6.992-14.805-15.258-.001-7.69 5.713-14.053 13.115-15.111zm-15.284 59.399c-3.514-3.903-5.045-7.861-5.705-10.778 3.83-1.525 7.556-3.438 11.149-5.716 3.684 1.597 7.742 2.488 12.006 2.488 1.316 0 2.62-.109 3.914-.276 4.356 10.954 10.876 20.82 19.06 29.04-18.979-1.35-32.902-6.404-40.424-14.758zm101.471 40.166c5.884 0 11.631-.596 17.187-1.725v19.781c0 9.477-7.71 17.187-17.187 17.187s-17.187-7.71-17.187-17.187v-19.781c5.555 1.129 11.302 1.725 17.187 1.725zm-42.622 19.917h10.492c.822 14.338 11.071 26.184 24.629 29.434v10.692c-19.367-3.45-34.252-19.997-35.121-40.126zm50.122 40.125v-10.691c13.558-3.25 23.807-15.096 24.629-29.434h10.493c-.869 20.129-15.754 36.676-35.122 40.125z"/><path d="m276.06 404.217c-4.142 0-7.5 3.402-7.5 7.545s3.358 7.5 7.5 7.5 7.5-3.357 7.5-7.5v-.09c0-4.143-3.358-7.455-7.5-7.455z"/><path d="m240.509 404.217c-4.142 0-7.5 3.402-7.5 7.545s3.358 7.5 7.5 7.5 7.5-3.357 7.5-7.5v-.09c0-4.143-3.358-7.455-7.5-7.455z"/><path d="m276.06 440.016c-4.142 0-7.5 3.402-7.5 7.545s3.358 7.5 7.5 7.5 7.5-3.357 7.5-7.5v-.09c0-4.143-3.358-7.455-7.5-7.455z"/><path d="m240.509 440.016c-4.142 0-7.5 3.402-7.5 7.545s3.358 7.5 7.5 7.5 7.5-3.357 7.5-7.5v-.09c0-4.143-3.358-7.455-7.5-7.455z"/><path d="m175.521 427.021c-4.142 0-7.5 3.357-7.5 7.5v69.977c0 4.143 3.358 7.5 7.5 7.5s7.5-3.357 7.5-7.5v-69.977c0-4.143-3.357-7.5-7.5-7.5z"/><path d="m336.476 427.021c-4.142 0-7.5 3.357-7.5 7.5v69.977c0 4.143 3.358 7.5 7.5 7.5s7.5-3.357 7.5-7.5v-69.977c0-4.143-3.358-7.5-7.5-7.5z"/><path d="m285.803 226.088c4.142 0 7.5-3.357 7.5-7.5v-.088c0-4.143-3.358-7.456-7.5-7.456s-7.5 3.401-7.5 7.544 3.358 7.5 7.5 7.5z"/><path d="m233.694 218.588v-.088c0-4.143-3.358-7.456-7.5-7.456s-7.5 3.401-7.5 7.544 3.358 7.5 7.5 7.5 7.5-3.358 7.5-7.5z"/><path d="m280.417 246.688c2.29-3.452 1.349-8.106-2.103-10.396-3.452-2.288-8.106-1.348-10.396 2.104-2.662 4.012-7.118 6.407-11.919 6.407s-9.257-2.396-11.919-6.407c-2.291-3.452-6.946-4.394-10.396-2.103-3.452 2.29-4.393 6.944-2.103 10.396 5.449 8.212 14.577 13.114 24.418 13.114s18.97-4.903 24.418-13.115z"/></g></g></svg>