<svg id="Layer_1" enable-background="new 0 0 256 256" height="512" viewBox="0 0 256 256" width="512" xmlns="http://www.w3.org/2000/svg"><g><path d="m115.658 124.387v20.92c0 5.9-4.78 10.68-10.68 10.68h-46.05c-5.9 0-10.68-4.78-10.68-10.68v-20.92l7.19-2.19c14.581 15.549 39.222 15.711 54 .3z" fill="#72c1e8"/><path d="m125.309 236.509c-1.346 0-2.456-1.07-2.498-2.424l-.107-3.539c-.042-1.38 1.043-2.533 2.423-2.575 1.352-.035 2.532 1.042 2.575 2.423l.107 3.539c.042 1.38-1.043 2.533-2.423 2.575-.025.001-.051.001-.077.001zm-.41-13.534c-1.346 0-2.456-1.07-2.498-2.424l-2.032-66.969c-.042-1.38 1.043-2.533 2.423-2.575 1.333-.034 2.532 1.042 2.575 2.423l2.032 66.969c.042 1.38-1.043 2.533-2.423 2.575-.025 0-.051.001-.077.001z" fill="#efefef"/><path d="m157.618 184.185h-24.87c-1.081-34.63-.88-22.11-.88-54.87l7.61 2.31c5.81 1.77 10.13 6.66 11.18 12.65z" fill="#72c1e8"/><path d="m116.637 20.294-5.975-4.09c-1.013 5.344-5.687 9.215-11.124 9.215h-35.6c-8.179 0-14.977 6.621-14.977 14.98l-.003 9.557h65.997l4.128-4.189c7.326-7.4 6.09-19.652-2.446-25.473z" fill="#7c7b7a"/><path d="m118.29 64.243h-3.333v-14.287h-65.997v14.288h-3.337c-5.264 0-9.496 4.262-9.496 9.496 0 5.243 4.246 9.496 9.496 9.496h3.847c1.63 9.269 7.009 16.989 14.348 21.819v14.588l-8.38 2.55c14.581 15.549 39.222 15.711 54 .3l-9.36-2.85v-14.606s.001-.001.002-.001c7.39-4.84 12.77-12.6 14.37-21.8 0-.001 0-.002 0-.003h3.84c5.26 0 9.49-4.26 9.49-9.49 0-5.25-4.24-9.5-9.49-9.5z" fill="#ffb69f"/><path d="m24.428 131.623c-5.81 1.77-10.13 6.66-11.18 12.65l-6.96 39.91 24.87.002c1.081-34.561.88-22.217.88-54.87z" fill="#72c1e8"/><g><path d="m31.158 184.183-1.851 58.884h-19.044l1.505-58.884z" fill="#ffb69f"/><path d="m132.748 184.187c-1.08-34.63-.88-22.11-.88-54.87l-16.21-4.93v20.92c0 5.9-4.78 10.68-10.68 10.68h-46.05c-5.9 0-10.68-4.78-10.68-10.68v-20.92l-16.21 4.93c0 32.75.2 20.24-.88 54.87l-1.85 58.88h105.29z" fill="#f2e1d6"/><path d="m52.521 216.281h58.864v26.785h-58.864z" fill="#afafaf"/></g><path d="m62.2 49.956-13.24 18.671v-18.671z" fill="#afafaf"/><path d="m114.957 49.956v18.671l-13.257-18.671z" fill="#afafaf"/><path d="m223.178 77.456c-3.66 1.01-6.655 3.45-8.565 6.4h-12.425c1.409-9.157 10.983-15.235 17.38-11.23 1.76 1.111 2.98 2.821 3.61 4.83z" fill="#f0c020"/><path d="m243.768 120.013-4.033 12.215c-1.353 4.097-5.181 6.865-9.496 6.865h-7.041c.41-.68.79-1.38 1.16-2.11 1.44-2.85.04-6.11-2.63-7.25-2.55-1.08-5.6-.02-6.85 2.6-1.23 2.56-2.76 5.51-3.75 6.76h-41.341c-4.315 0-8.143-2.767-9.496-6.865l-4.033-12.215z" fill="#fc5d3d"/><path d="m234.968 120.007h-71.56c-.64-18.97 13.69-36.15 36.49-36.15h2.29 12.425c-2.88 4.44-3.295 10.03.175 13.5 4.65 4.65 13.49 2.45 17.95-4.2 7.817 10.329 4.035 19.996 2.23 26.85z" fill="#f0c020"/><path d="m171.603 114.432c-1.339-.338-2.15-1.697-1.812-3.036.178-.706.385-1.412.615-2.1.438-1.31 1.854-2.015 3.164-1.578 1.309.438 2.016 1.854 1.578 3.164-.19.569-.362 1.154-.509 1.738-.338 1.338-1.696 2.15-3.036 1.812zm4.427-11.097c-1.051-.895-1.178-2.473-.283-3.524 5.74-6.742 14.316-10.456 24.149-10.456 1.381 0 2.5 1.119 2.5 2.5s-1.119 2.5-2.5 2.5c-8.343 0-15.567 3.088-20.341 8.697-.897 1.052-2.474 1.177-3.525.283z" fill="#f9e5af"/><g fill="#f0c020"><path d="m232.658 79.487c-2.37-2.37-5.94-3-9.48-2.03-3.66 1.01-6.655 3.45-8.565 6.4-2.88 4.44-3.295 10.03.175 13.5 4.65 4.65 13.49 2.45 17.95-4.2 3.14-4.67 3.24-10.35-.08-13.67z"/><path d="m165.238 73.931c-3.961-1.309-8.051-2.453-10.348-12.345-2.115 9.112-5.504 10.745-10.348 12.345 7.9 2.61 9.092 6.933 10.348 12.345 2.165-9.33 5.746-10.825 10.348-12.345z"/><path d="m240.83 23.024c-3.961-1.309-8.051-2.453-10.348-12.345-2.115 9.112-5.504 10.745-10.348 12.345 7.9 2.61 9.092 6.933 10.348 12.345 2.165-9.329 5.745-10.824 10.348-12.345z"/><path d="m247.873 168.72c-3.961-1.309-8.051-2.453-10.348-12.345-2.115 9.112-5.504 10.745-10.348 12.345 7.9 2.61 9.092 6.933 10.348 12.345 2.165-9.33 5.746-10.824 10.348-12.345z"/></g><path d="m132.748 184.183h24.87l2.84 16.27 13.14-61.36h37.53c.99-1.25 2.52-4.2 3.75-6.76 1.25-2.62 4.3-3.68 6.85-2.6 2.67 1.14 4.07 4.4 2.63 7.25-.37.73-.75 1.43-1.16 2.11-8.18 13.87-22.7 17.01-28.93 18.8l-13.935 71.454c-1.606 8.235-8.197 14.583-16.486 15.879-10.641 1.663-20.687-5.428-22.672-16.026z" fill="#ffb69f"/><path d="m89.308 94.917c2.11-1.49 3.7-3.55 4.6-5.96.48-1.29-.17-2.73-1.46-3.21-1.27-.48-2.75.21-3.22 1.46-1.13 3.01-4.05 5.03-7.28 5.03-3.22 0-6.14-2.02-7.26-5.02-.46-1.26-1.95-1.94-3.21-1.48-1.36.519-1.933 1.98-1.48 3.22 2.871 7.725 12.441 10.794 19.31 5.96z"/><path d="m69.097 68.768v-1.943c0-1.381-1.119-2.5-2.5-2.5s-2.5 1.119-2.5 2.5v1.943c0 1.381 1.119 2.5 2.5 2.5s2.5-1.119 2.5-2.5z"/><path d="m97.309 71.268c1.381 0 2.5-1.119 2.5-2.5v-1.943c0-1.381-1.119-2.5-2.5-2.5s-2.5 1.119-2.5 2.5v1.943c0 1.381 1.12 2.5 2.5 2.5z"/><path d="m81.953 80.134c1.381 0 2.5-1.119 2.5-2.5v-8.865c0-1.381-1.119-2.5-2.5-2.5s-2.5 1.119-2.5 2.5v8.865c0 1.38 1.119 2.5 2.5 2.5z"/><path d="m6.288 186.683h2.915l-1.439 56.316c-.036 1.405 1.092 2.564 2.5 2.564 1.351 0 2.463-1.078 2.498-2.436l1.443-56.443 14.374.001-1.77 56.302c-.044 1.408 1.084 2.579 2.5 2.579 1.344 0 2.455-1.068 2.497-2.421 3.216-102.273 2.741-79.895 2.733-111.977l11.21-3.409v17.549c0 5.867 3.824 10.89 9.24 12.58 1.3.4 2.73-.35 3.13-1.64.421-1.349-.345-2.723-1.63-3.13h-.01c-3.43-1.08-5.73-4.22-5.73-7.81v-19.07l3.96-1.21c15.344 15.132 39.937 15.256 55.44.3l3.01.91v19.07c-.01 4.5-3.68 8.17-8.18 8.18h-29.3c-1.38 0-2.5 1.12-2.5 2.5s1.12 2.5 2.5 2.5h29.3c7.27 0 13.18-5.91 13.18-13.18v-17.549l11.21 3.409c-.013 28.658-.517 8.66 2.734 111.917.044 1.394 1.217 2.469 2.577 2.42 1.38-.043 2.463-1.197 2.42-2.577l-.83-26.353 2.45 13.085c2.248 12.004 13.458 19.921 25.515 18.036 9.296-1.454 16.752-8.635 18.553-17.87l13.64-69.94c6.592-1.824 19.992-5.565 28.167-18.292h5.646c5.405 0 10.175-3.448 11.87-8.581l3.468-10.504h4.135c1.381 0 2.5-1.119 2.5-2.5s-1.119-2.5-2.5-2.5h-11.467c2.453-8.879 2.84-16.462-2.533-24.465 2.457-4.572 2.532-9.605.262-13.335l7.791-7.791.437.437c.976.977 2.56.977 3.535 0 .977-.976.977-2.559 0-3.535l-4.408-4.408c-.976-.977-2.56-.977-3.535 0-.977.976-.977 2.559 0 3.535l.437.437-7.803 7.803c-2.207-1.337-4.9-1.88-7.732-1.545-.5-.943-1.121-1.791-1.846-2.536l5.845-9.343.523.327c1.172.734 2.714.376 3.445-.793.732-1.171.377-2.713-.793-3.445l-5.285-3.307c-1.171-.733-2.713-.376-3.445.793-.732 1.171-.377 2.713.793 3.445l.523.327-5.844 9.341c-7.407-2.465-15.984 3.386-18.428 11.908-3.331 0-6.542.276-9.965 1.04-1.394.321-2.193 1.678-1.89 2.99.29 1.31 1.66 2.19 2.98 1.89 2.74-.61 5.63-.92 8.59-.92h10.73c-.007.021-.012.043-.019.064-1.505 4.443-.948 9.365 2.409 12.706 5.305 5.305 14.167 3.493 19.481-1.788 3.917 6.974 2.488 13.28.559 20.168h-67.15c.32-8.19 3.61-15.82 9.28-21.5.972-.952 1.005-2.547 0-3.53-.94-.95-2.59-.95-3.53 0-6.74 6.74-10.432 15.676-10.74 25.031h-10.601c-1.381 0-2.5 1.119-2.5 2.5s1.119 2.5 2.5 2.5h4.131l3.468 10.505c1.695 5.132 6.465 8.581 11.87 8.581h.718l-9.797 45.754-7.59-43.5c-1.197-6.894-6.163-12.56-12.91-14.61l-37.63-11.446v-11.445c6.982-4.972 11.948-12.348 13.905-20.613h1.807c6.611 0 11.99-5.378 11.99-11.99 0-6.617-5.378-12-11.99-12h-.833v-10.768l3.411-3.46c8.424-8.519 6.994-22.591-2.82-29.29l-5.97-4.09c-1.455-.991-3.523-.2-3.87 1.6-.79 4.16-4.43 7.18-8.67 7.18h-26.09c-1.38 0-2.5 1.12-2.5 2.5s1.12 2.5 2.5 2.5h26.09c5.27 0 10.14-3.05 12.44-7.79l3.25 2.23c7.181 4.905 8.346 15.289 2.08 21.65l-3.399 3.449h-62.453v-7.059c.01-3.68 1.62-7.16 4.44-9.54 1.029-.868 1.214-2.435.3-3.52-.85-1.02-2.5-1.16-3.52-.3-3.95 3.32-6.22 8.19-6.22 13.36v21.348h-.835c-6.615 0-11.996 5.381-11.996 11.996 0 6.614 5.381 11.996 11.996 11.996h1.819c1.98 8.291 6.939 15.665 13.876 20.624v11.43l-37.616 11.44c-.001 0-.001 0-.002 0-6.746 2.055-11.694 7.653-12.915 14.612l-6.959 39.91c-.267 1.529.911 2.929 2.462 2.929zm224.602-105.429c2.959 2.959 1.914 8.306-1.318 11.912-3.609 4.027-9.71 5.699-13.015 2.421-3.19-3.216-1.71-9.042 2.108-12.713 3.69-3.547 9.23-4.613 12.225-1.62zm-11.175-5.157c-2.394 1.152-4.663 2.975-6.399 5.26h-7.853c2.775-6.771 10.649-9.95 14.252-5.26zm-57.05 55.348-2.949-8.932h80.594l-2.949 8.931c-1.017 3.08-3.879 5.149-7.122 5.149h-3.067c.002-.008.003-.017.005-.025.982-3.691-.923-7.621-4.473-9.137-3.851-1.63-8.279.05-10.079 3.82-1.096 2.281-2.092 4.167-2.815 5.343h-40.022c-3.244 0-6.106-2.07-7.123-5.149zm22.639 10.149c-1.327 1.528-2.351 3.34-2.941 5.359-.387 1.326.374 2.713 1.699 3.101 1.318.385 2.712-.368 3.101-1.699 1.155-3.956 4.824-6.724 8.939-6.76h15.026c.764 0 1.486-.349 1.96-.948 1.198-1.513 2.86-4.767 4.046-7.235.648-1.356 2.24-1.96 3.612-1.377 1.369.584 2.156 2.287 1.382 3.82-5.795 11.43-15.573 16.042-27.096 19.23-.523.145-1.01.279-1.455.407-.902.259-1.583 1.002-1.763 1.924l-13.935 71.454c-1.4 7.177-7.194 12.757-14.418 13.887-9.369 1.473-18.082-4.691-19.828-14.016l-7.873-42.052h19.757l2.393 13.708-3.303 15.361c-.334 1.555.852 3.026 2.447 3.026 1.153 0 2.189-.802 2.442-1.975l16.124-75.213h9.684zm-37.106 3.113 6.449 36.976h-19.477c-.989-31.461-.803-21.314-.803-48.996l4.38 1.33c4.941 1.5 8.561 5.601 9.451 10.69zm-96.738-92.25h5.901l-5.901 8.322zm60.997 0v8.33l-5.915-8.33zm5.833 14.286c3.854 0 6.99 3.14 6.99 7 0 3.854-3.136 6.99-6.99 6.99h-.976c.096-1.078.143-2.163.143-3.247v-10.743zm-72.668 13.994c-3.857 0-6.996-3.138-6.996-6.996s3.139-6.996 6.996-6.996h.834v10.743c0 1.022.082 2.531.147 3.246v.003zm5.838-3.25v-8.064l12.031-16.965h36.919l12.048 16.966v8.06c0 16.578-13.36 30.435-30.504 30.451-16.888.015-30.494-13.554-30.494-30.448zm13.086 44.548c1.053-.32 1.772-1.291 1.772-2.392v-10.256c10.101 4.997 21.868 4.637 31.26-.018v10.274c0 1.1.719 2.071 1.772 2.392l5.194 1.581c-12.886 10.576-31.468 10.41-44.259-.284zm-48.836 22.67c.893-5.09 4.511-9.186 9.444-10.689l4.384-1.33c.014 27.812.148 18.769-.803 48.999l-19.473-.001z"/><path d="m58.218 228.277c0 1.339 1.084 2.5 2.5 2.5 1.357 0 2.5-1.084 2.5-2.5 0-1.312-1.018-2.464-2.499-2.461-1.498.003-2.501 1.184-2.501 2.461z"/><circle cx="92.098" cy="228.277" r="2.5"/><circle cx="81.638" cy="228.277" r="2.5"/><circle cx="71.178" cy="228.277" r="2.5"/><path d="m100.058 228.277c0 1.391 1.111 2.5 2.5 2.5 1.427 0 2.5-1.174 2.5-2.5 0-1.322-1.081-2.483-2.5-2.495-1.179-.01-2.5.946-2.5 2.495z"/><path d="m50.021 216.281v26.734c0 1.381 1.119 2.5 2.5 2.5s2.5-1.119 2.5-2.5v-24.234h53.864v24.234c0 1.381 1.119 2.5 2.5 2.5s2.5-1.119 2.5-2.5v-26.734c0-1.381-1.119-2.5-2.5-2.5h-58.864c-1.381 0-2.5 1.119-2.5 2.5z"/><path d="m143.709 76.456c6.686 2.209 7.444 5.476 8.591 10.421.637 2.743 4.545 2.742 5.182 0 1.905-8.212 4.709-9.139 8.591-10.421 2.424-.801 2.43-4.249 0-5.051-3.729-1.228-6.641-2.022-8.591-10.421-.635-2.737-4.548-2.73-5.181 0-1.907 8.213-4.566 9.092-8.591 10.422-2.425.8-2.431 4.248-.001 5.05zm11.192-7.102c1.2 2.161 2.566 3.591 3.977 4.601-1.472 1.035-2.794 2.423-3.934 4.439-.942-1.587-2.25-3.089-4.164-4.403 1.548-1.062 2.934-2.503 4.121-4.637z"/><path d="m219.3 25.55c6.686 2.209 7.444 5.476 8.591 10.421.637 2.743 4.545 2.742 5.182 0 1.905-8.212 4.709-9.139 8.591-10.421 2.424-.801 2.43-4.249 0-5.051-3.729-1.228-6.641-2.022-8.591-10.421-.635-2.737-4.548-2.73-5.181 0-1.907 8.213-4.566 9.092-8.591 10.422-2.425.8-2.43 4.248-.001 5.05zm11.192-7.102c1.2 2.161 2.566 3.592 3.977 4.601-1.472 1.035-2.794 2.423-3.934 4.439-.942-1.587-2.25-3.089-4.164-4.403 1.548-1.062 2.934-2.504 4.121-4.637z"/><path d="m248.708 171.246c2.424-.801 2.43-4.249 0-5.051-3.729-1.228-6.641-2.022-8.591-10.421-.635-2.737-4.548-2.73-5.181 0-1.907 8.213-4.566 9.092-8.591 10.422-2.424.801-2.43 4.248 0 5.051 6.686 2.209 7.444 5.476 8.591 10.421.637 2.743 4.545 2.742 5.182 0 1.904-8.214 4.708-9.14 8.59-10.422zm-11.129 1.938c-.942-1.587-2.25-3.089-4.164-4.403 1.548-1.062 2.934-2.504 4.121-4.638 1.2 2.161 2.566 3.592 3.977 4.601-1.472 1.035-2.794 2.423-3.934 4.44z"/><path d="m180.381 69.737c.976.977 2.56.977 3.535 0 .977-.976.977-2.559 0-3.535-3.992-3.993-3.992-10.488 0-14.481 5.957-5.957 5.956-15.595 0-21.552-.977-.976-2.559-.976-3.536 0-.976.976-.976 2.559 0 3.536 4.002 4.002 4.001 10.478 0 14.48-5.941 5.942-5.941 15.611.001 21.552z"/><path d="m199.912 63.013c.976.977 2.56.977 3.535 0 .977-.976.977-2.559 0-3.535-3.992-3.993-3.992-10.489 0-14.481 5.957-5.957 5.956-15.595 0-21.552-.976-.977-2.56-.977-3.535 0-.977.976-.977 2.559 0 3.535 4.002 4.003 4.001 10.479 0 14.481-5.941 5.942-5.941 15.61 0 21.552z"/><path d="m181.418 85.797c-.41 0-.81.11-1.17.3h-.01c-1.22.65-1.67 2.17-1.02 3.39.44.81 1.28 1.31 2.2 1.31.41 0 .82-.1 1.19-.29 1.21-.66 1.67-2.18 1.01-3.39-.43-.81-1.28-1.32-2.2-1.32z"/><path d="m63.448 27.927h.08c1.38-.05 2.46-1.2 2.42-2.58-.05-1.39-1.2-2.46-2.58-2.42-1.388.041-2.461 1.196-2.42 2.58.04 1.361 1.14 2.42 2.5 2.42z"/><circle cx="65.678" cy="155.987" r="2.5"/></g></svg>